# xmcd
# 
# Track frame offsets:
#     150
#     12044
#     26544
#     43561
#     58734
#     72011
#     82098
#     94443
#     113172
#     127065
#     143068
#     158215
#     171939
#     187796
# 
# Disc length: 2688
# 
# Revision: 9
# Processed by: cddbd v1.5.2PL0 Copyright (c) Steve Scherf et al.
# Submitted via: BonkEnc v1.0.6
# 
DISCID=b90a7e0e
DTITLE=Amado Batista - Perdido de Amor
DYEAR=2006
DGENRE=Musical
TTITLE0=Explode Coração
TTITLE1=Começando a Chorar
TTITLE2=O Príncipe
TTITLE3=Perdido de Amor
TTITLE4=Força do Amor
TTITLE5=Só Pra Você Ver
TTITLE6=O Meu Telefone
TTITLE7=E Eu Chorei
TTITLE8=Menina
TTITLE9=Nada é Proibido
TTITLE10=Desculpa
TTITLE11=O Amor Vai Vencer
TTITLE12=Outras Cenas
TTITLE13=Acordei
EXTD=
EXTT0=
EXTT1=
EXTT2=
EXTT3=
EXTT4=
EXTT5=
EXTT6=
EXTT7=
EXTT8=
EXTT9=
EXTT10=
EXTT11=
EXTT12=
EXTT13=
PLAYORDER=
